<svg width="16" height="16" viewBox="0 0 16 17" fill="none" xmlns="http://www.w3.org/2000/svg">
<g clip-path="url(#clip0_51_60579)">
<path d="M11.9792 8.14551V4.67169C11.9792 3.96531 11.4045 3.39062 10.6981 3.39062H3.60803C2.90165 3.39062 2.32701 3.96531 2.32701 4.67169V8.14551C1.51307 8.34131 0.90625 9.075 0.90625 9.94817V12.5392C0.90625 12.7448 1.07289 12.9114 1.27845 12.9114H2.32699V13.8116C2.32699 14.0172 2.49363 14.1838 2.69919 14.1838C2.90475 14.1838 3.07139 14.0172 3.07139 13.8116V12.9114H11.2347V13.8116C11.2347 14.0172 11.4014 14.1838 11.6069 14.1838C11.8125 14.1838 11.9791 14.0172 11.9791 13.8116V12.9114H13.0277C13.2332 12.9114 13.3999 12.7448 13.3999 12.5392V9.94817C13.3999 9.075 12.7931 8.34131 11.9792 8.14551ZM3.07141 4.67169C3.07141 4.37579 3.31216 4.13505 3.60803 4.13505H10.6981C10.994 4.13505 11.2348 4.37579 11.2348 4.67169V8.09383H10.0048V7.50663C10.0048 6.53373 9.21327 5.74224 8.2404 5.74224H6.06582C5.09292 5.74224 4.30143 6.53376 4.30143 7.50663V8.09381H3.07141V4.67169ZM9.26039 7.50663V8.09381H5.04578V7.50663C5.04578 6.9442 5.50333 6.48664 6.06577 6.48664H8.24038C8.80279 6.48661 9.26039 6.94422 9.26039 7.50663ZM1.65065 12.167V9.94817C1.65065 9.33615 2.14856 8.83823 2.76058 8.83823H11.5455C12.1576 8.83823 12.6555 9.33615 12.6555 9.94817V12.167H1.65065Z" fill="#8E8E93"/>
</g>
<defs>
<clipPath id="clip0_51_60579">
<rect width="12.4937" height="12.4937" fill="white" transform="translate(0.90625 2.51562)"/>
</clipPath>
</defs>
</svg>
