<svg width="13" height="13" viewBox="0 0 13 13" fill="none" xmlns="http://www.w3.org/2000/svg">
<path d="M12.6499 6.09011C12.6499 5.78229 12.5243 5.49235 12.2963 5.27373C12.0739 5.06063 11.7836 4.94323 11.4786 4.94323H2.47441V2.9135C2.47441 2.55011 2.60267 2.21 2.83548 1.95591C3.0602 1.71079 3.35661 1.5758 3.67009 1.5758C4.24427 1.5758 4.67708 1.90291 4.81724 2.40546H4.64616C4.44402 2.40546 4.28014 2.56934 4.28014 2.77148C4.28014 2.97363 4.44402 3.13751 4.64616 3.13751H5.81744C6.01959 3.13751 6.18347 2.97363 6.18347 2.77148C6.18347 2.56934 6.01959 2.40546 5.81744 2.40546H5.56601C5.49617 2.00547 5.31169 1.64769 5.02863 1.37444C4.67413 1.03223 4.19166 0.84375 3.67009 0.84375C3.14897 0.84375 2.66094 1.06302 2.29582 1.46131C1.93892 1.85083 1.74236 2.36656 1.74236 2.9135V4.94323H1.32753C1.02261 4.94323 0.732228 5.06063 0.509879 5.27373C0.281821 5.49235 0.15625 5.78229 0.15625 6.09011C0.15625 6.39794 0.281821 6.68788 0.509879 6.9065C0.640526 7.0317 0.794745 7.12358 0.961506 7.17831V9.33698C0.961506 10.395 1.60613 11.3052 2.52321 11.6957V12.3369C2.52321 12.5391 2.6871 12.703 2.88924 12.703C3.09138 12.703 3.25527 12.5391 3.25527 12.3369V11.8851C3.3435 11.8943 3.43303 11.8991 3.52368 11.8991H9.28249C9.37314 11.8991 9.46267 11.8943 9.5509 11.8851V12.3369C9.5509 12.5391 9.71479 12.703 9.91693 12.703C10.1191 12.703 10.283 12.5391 10.283 12.3369V11.6957C11.2 11.3052 11.8447 10.395 11.8447 9.33698V7.17831C12.0114 7.12358 12.1656 7.03173 12.2963 6.9065C12.5243 6.68788 12.6499 6.39794 12.6499 6.09011ZM11.1126 9.33698C11.1126 10.3461 10.2916 11.1671 9.28249 11.1671H3.52368C2.51455 11.1671 1.69356 10.3461 1.69356 9.33698V7.23699H11.1126V9.33698ZM11.4786 6.50494H1.32753C1.09354 6.50494 0.888301 6.3111 0.888301 6.09011C0.888301 5.86913 1.09354 5.67529 1.32753 5.67529H11.4786C11.7126 5.67529 11.9179 5.86913 11.9179 6.09011C11.9179 6.3111 11.7126 6.50494 11.4786 6.50494Z" fill="#8E8E93"/>
</svg>
