<svg width="14" height="14" viewBox="0 0 14 14" fill="none" xmlns="http://www.w3.org/2000/svg">
<path d="M5.62342 4.33587V8.63057M8.74683 5.50716V9.80185M9.00868 11.6228L11.5465 10.3542C11.7448 10.2553 11.8703 10.0522 11.8703 9.83049V3.33118C11.8703 2.89598 11.4122 2.61279 11.0228 2.80748L9.00868 3.81426C8.84366 3.89703 8.64949 3.89703 8.48499 3.81426L5.88526 2.51492C5.80396 2.47428 5.71431 2.45312 5.62342 2.45312C5.53252 2.45313 5.44287 2.47428 5.36157 2.51492L2.82379 3.78355C2.62494 3.88298 2.5 4.086 2.5 4.30724V10.8066C2.5 11.2418 2.9581 11.5249 3.34749 11.3302L5.36157 10.3235C5.52659 10.2407 5.72076 10.2407 5.88526 10.3235L8.48499 11.6233C8.65001 11.7056 8.84418 11.7056 9.00868 11.6233V11.6228Z" stroke="#8E8E93" stroke-width="0.780854" stroke-linecap="round" stroke-linejoin="round"/>
</svg>
