<svg width="13" height="13" viewBox="0 0 13 13" fill="none" xmlns="http://www.w3.org/2000/svg">
<g clip-path="url(#clip0_51_60595)">
<path d="M4.02981 4.05859C2.80719 4.05859 1.8125 5.05328 1.8125 6.2759C1.8125 7.49853 2.80719 8.49321 4.02981 8.49321C5.25243 8.49321 6.24712 7.49853 6.24712 6.2759C6.24712 5.05328 5.25243 4.05859 4.02981 4.05859ZM4.02981 7.76116C3.21081 7.76116 2.54455 7.09487 2.54455 6.2759C2.54455 5.45693 3.21084 4.79064 4.02981 4.79064C4.84878 4.79064 5.51507 5.45693 5.51507 6.2759C5.51507 7.09487 4.84878 7.76116 4.02981 7.76116Z" fill="#8E8E93"/>
<path d="M12.362 9.05495H9.55861V8.29945C9.55861 8.0973 9.39472 7.93342 9.19258 7.93342H7.83436V6.20778C7.83436 5.93309 7.80478 5.66521 7.74915 5.40689L8.2821 5.00873C8.51355 4.83585 8.6638 4.58317 8.7052 4.29728C8.74659 4.01136 8.67419 3.72647 8.50128 3.49502L7.89285 2.68057C7.71996 2.44912 7.46731 2.29887 7.18139 2.25746C6.89545 2.21608 6.61059 2.28848 6.37914 2.46139L5.83942 2.86458C5.30214 2.57334 4.68725 2.40778 4.03438 2.40778C1.93903 2.4078 0.234375 4.11246 0.234375 6.20778V9.13455C0.234375 10.1127 1.03019 10.9085 2.00838 10.9085H9.19258C9.39472 10.9085 9.55861 10.7447 9.55861 10.5425V9.787H11.996V10.5378C11.996 10.74 12.1599 10.9038 12.362 10.9038C12.5642 10.9038 12.728 10.74 12.728 10.5378V9.42097C12.728 9.21883 12.5642 9.05495 12.362 9.05495ZM6.81725 3.04786C6.89201 2.992 6.98401 2.96858 7.07649 2.98198C7.16887 2.99535 7.2505 3.04391 7.30638 3.11867L7.91483 3.93315C7.97071 4.00794 7.99411 4.09999 7.98074 4.19237C7.96737 4.28476 7.91881 4.36641 7.84402 4.42226L7.50981 4.67194C7.27366 4.13959 6.91868 3.67132 6.47872 3.30078L6.81725 3.04786ZM8.82656 10.1765H2.00838C1.43384 10.1765 0.966426 9.70908 0.966426 9.13455V6.20778C0.966426 4.51611 2.34271 3.13985 4.03438 3.13985C5.72605 3.13985 7.10233 4.51613 7.10233 6.20781V8.29947C7.10233 8.50161 7.26621 8.6655 7.46836 8.6655H8.82658V10.1765H8.82656Z" fill="#8E8E93"/>
</g>
<defs>
<clipPath id="clip0_51_60595">
<rect width="12.4937" height="12.4937" fill="white" transform="translate(0.242188 0.324219)"/>
</clipPath>
</defs>
</svg>
